<svg width="50" height="50" viewBox="0 0 50 50" fill="none" xmlns="http://www.w3.org/2000/svg">
<rect width="50" height="50" fill="#E21A43"/>
<path fill-rule="evenodd" clip-rule="evenodd" d="M23.3836 18.4571C19.6941 18.4571 16.7031 21.385 16.7031 24.9967C16.7031 28.6084 19.6941 31.5363 23.3836 31.5363C27.0731 31.5363 30.064 28.6084 30.064 24.9967C30.064 21.385 27.0731 18.4571 23.3836 18.4571ZM15.2146 24.9967C15.2146 20.5802 18.872 17 23.3836 17C27.8952 17 31.5525 20.5802 31.5525 24.9967C31.5525 27.0386 30.7708 28.9017 29.4843 30.3149L31.9841 32.7556C32.2751 33.0397 32.2757 33.501 31.9855 33.7859C31.6952 34.0708 31.2239 34.0714 30.9329 33.7873L28.3967 31.311C27.0128 32.3654 25.2731 32.9934 23.3836 32.9934C18.872 32.9934 15.2146 29.4132 15.2146 24.9967Z" fill="white"/>
</svg>
